<svg id="visual" viewBox="0 0 900 600" width="900" height="600" xmlns="http://www.w3.org/2000/svg" xmlns:xlink="http://www.w3.org/1999/xlink" version="1.1"><path d="M0 25L25 34C50 43 100 61 150 72C200 83 250 87 300 79C350 71 400 51 450 41C500 31 550 31 600 41C650 51 700 71 750 80C800 89 850 87 875 86L900 85L900 0L875 0C850 0 800 0 750 0C700 0 650 0 600 0C550 0 500 0 450 0C400 0 350 0 300 0C250 0 200 0 150 0C100 0 50 0 25 0L0 0Z" fill="#080c3d"></path><path d="M0 103L25 116C50 129 100 155 150 175C200 195 250 209 300 217C350 225 400 227 450 205C500 183 550 137 600 137C650 137 700 183 750 198C800 213 850 197 875 189L900 181L900 83L875 84C850 85 800 87 750 78C700 69 650 49 600 39C550 29 500 29 450 39C400 49 350 69 300 77C250 85 200 81 150 70C100 59 50 41 25 32L0 23Z" fill="#0a0c37"></path><path d="M0 169L25 175C50 181 100 193 150 211C200 229 250 253 300 264C350 275 400 273 450 252C500 231 550 191 600 188C650 185 700 219 750 230C800 241 850 229 875 223L900 217L900 179L875 187C850 195 800 211 750 196C700 181 650 135 600 135C550 135 500 181 450 203C400 225 350 223 300 215C250 207 200 193 150 173C100 153 50 127 25 114L0 101Z" fill="#0c0b32"></path><path d="M0 409L25 401C50 393 100 377 150 378C200 379 250 397 300 397C350 397 400 379 450 368C500 357 550 353 600 363C650 373 700 397 750 398C800 399 850 377 875 366L900 355L900 215L875 221C850 227 800 239 750 228C700 217 650 183 600 186C550 189 500 229 450 250C400 271 350 273 300 262C250 251 200 227 150 209C100 191 50 179 25 173L0 167Z" fill="#0d0a2c"></path><path d="M0 475L25 480C50 485 100 495 150 503C200 511 250 517 300 522C350 527 400 531 450 525C500 519 550 503 600 492C650 481 700 475 750 474C800 473 850 477 875 479L900 481L900 353L875 364C850 375 800 397 750 396C700 395 650 371 600 361C550 351 500 355 450 366C400 377 350 395 300 395C250 395 200 377 150 376C100 375 50 391 25 399L0 407Z" fill="#0d0927"></path><path d="M0 523L25 530C50 537 100 551 150 555C200 559 250 553 300 554C350 555 400 563 450 568C500 573 550 575 600 570C650 565 700 553 750 547C800 541 850 541 875 541L900 541L900 479L875 477C850 475 800 471 750 472C700 473 650 479 600 490C550 501 500 517 450 523C400 529 350 525 300 520C250 515 200 509 150 501C100 493 50 483 25 478L0 473Z" fill="#0d0921"></path><path d="M0 601L25 601C50 601 100 601 150 601C200 601 250 601 300 601C350 601 400 601 450 601C500 601 550 601 600 601C650 601 700 601 750 601C800 601 850 601 875 601L900 601L900 539L875 539C850 539 800 539 750 545C700 551 650 563 600 568C550 573 500 571 450 566C400 561 350 553 300 552C250 551 200 557 150 553C100 549 50 535 25 528L0 521Z" fill="#0c081c"></path></svg>