<svg id="visual" viewBox="0 0 900 600" width="900" height="600" xmlns="http://www.w3.org/2000/svg" xmlns:xlink="http://www.w3.org/1999/xlink" version="1.1"><path d="M0 157L25 159C50 161 100 165 150 151C200 137 250 105 300 88C350 71 400 69 450 71C500 73 550 79 600 90C650 101 700 117 750 110C800 103 850 73 875 58L900 43L900 0L875 0C850 0 800 0 750 0C700 0 650 0 600 0C550 0 500 0 450 0C400 0 350 0 300 0C250 0 200 0 150 0C100 0 50 0 25 0L0 0Z" fill="#080c3d"></path><path d="M0 211L25 212C50 213 100 215 150 203C200 191 250 165 300 151C350 137 400 135 450 141C500 147 550 161 600 170C650 179 700 183 750 168C800 153 850 119 875 102L900 85L900 41L875 56C850 71 800 101 750 108C700 115 650 99 600 88C550 77 500 71 450 69C400 67 350 69 300 86C250 103 200 135 150 149C100 163 50 159 25 157L0 155Z" fill="#0a0c37"></path><path d="M0 283L25 287C50 291 100 299 150 309C200 319 250 331 300 339C350 347 400 351 450 353C500 355 550 355 600 361C650 367 700 379 750 363C800 347 850 303 875 281L900 259L900 83L875 100C850 117 800 151 750 166C700 181 650 177 600 168C550 159 500 145 450 139C400 133 350 135 300 149C250 163 200 189 150 201C100 213 50 211 25 210L0 209Z" fill="#0c0b32"></path><path d="M0 349L25 349C50 349 100 349 150 358C200 367 250 385 300 396C350 407 400 411 450 419C500 427 550 439 600 444C650 449 700 447 750 433C800 419 850 393 875 380L900 367L900 257L875 279C850 301 800 345 750 361C700 377 650 365 600 359C550 353 500 353 450 351C400 349 350 345 300 337C250 329 200 317 150 307C100 297 50 289 25 285L0 281Z" fill="#0d0a2c"></path><path d="M0 451L25 461C50 471 100 491 150 496C200 501 250 491 300 487C350 483 400 485 450 486C500 487 550 487 600 489C650 491 700 495 750 497C800 499 850 499 875 499L900 499L900 365L875 378C850 391 800 417 750 431C700 445 650 447 600 442C550 437 500 425 450 417C400 409 350 405 300 394C250 383 200 365 150 356C100 347 50 347 25 347L0 347Z" fill="#0d0927"></path><path d="M0 529L25 534C50 539 100 549 150 555C200 561 250 563 300 558C350 553 400 541 450 536C500 531 550 533 600 541C650 549 700 563 750 565C800 567 850 557 875 552L900 547L900 497L875 497C850 497 800 497 750 495C700 493 650 489 600 487C550 485 500 485 450 484C400 483 350 481 300 485C250 489 200 499 150 494C100 489 50 469 25 459L0 449Z" fill="#0d0921"></path><path d="M0 601L25 601C50 601 100 601 150 601C200 601 250 601 300 601C350 601 400 601 450 601C500 601 550 601 600 601C650 601 700 601 750 601C800 601 850 601 875 601L900 601L900 545L875 550C850 555 800 565 750 563C700 561 650 547 600 539C550 531 500 529 450 534C400 539 350 551 300 556C250 561 200 559 150 553C100 547 50 537 25 532L0 527Z" fill="#0c081c"></path></svg>