<svg width="93" height="93" viewBox="0 0 93 93" fill="none" xmlns="http://www.w3.org/2000/svg">
<path d="M74.7299 92.5922H17.8623C8.0198 92.5922 0 84.5724 0 74.7299V17.8623C0 8.0198 8.0198 0 17.8623 0H74.7299C84.5724 0 92.5922 8.0198 92.5922 17.8623V74.7299C92.5922 84.5724 84.5724 92.5922 74.7299 92.5922Z" fill="url(#paint0_linear_16_4673)"/>
<path d="M19.8308 46.1502H26.3925L19.3934 29.6732H19.685C37.3286 27.486 55.1908 27.486 72.8344 29.6732H73.126L66.1269 46.1502H72.6886L79.2502 30.5481L78.8857 30.4023L79.2502 30.4752C79.2502 26.2466 76.5527 22.3825 72.3969 20.8514C55.4825 14.5085 36.964 14.5085 19.9766 20.8514C15.8209 22.3825 13.1234 26.2466 13.1234 30.4752L13.4879 30.4023L13.1234 30.5481L19.8308 46.1502Z" fill="white"/>
<path d="M38.6408 46.1503H41.4113C41.9945 44.036 43.963 42.432 46.2961 42.432C48.6291 42.432 50.5976 44.036 51.1809 46.1503H63.3564C62.7002 37.3285 55.3366 30.4023 46.369 30.4023C37.4014 30.4023 30.0378 37.3285 29.3816 46.1503H32.0792C32.7353 38.8596 38.8595 33.1728 46.2961 33.1728V35.36C40.099 35.36 34.9225 40.099 34.2664 46.1503H36.4536C37.1098 41.2655 41.2655 37.5473 46.2961 37.5473V39.7345C42.432 39.7345 39.297 42.5049 38.6408 46.1503Z" fill="white"/>
<path d="M46.369 49.431H13.342H13.2691H13.1962V50.0143C13.1962 58.5444 15.0189 67.0017 18.5914 74.7298C19.1017 75.8235 20.1953 76.4796 21.3618 76.4796H46.2232H71.0846C72.2511 76.4796 73.3447 75.7505 73.8551 74.7298C77.4275 67.0017 79.2502 58.5444 79.2502 50.0143V49.431H46.369ZM49.2124 66.8559H43.3798L44.2547 62.1169C43.3069 61.4607 42.7237 60.44 42.7237 59.2006C42.7237 57.2321 44.3276 55.6281 46.2961 55.6281C48.2646 55.6281 49.8686 57.2321 49.8686 59.2006C49.8686 60.44 49.2853 61.4607 48.3375 62.1169L49.2124 66.8559Z" fill="white"/>
<defs>
<linearGradient id="paint0_linear_16_4673" x1="46.2961" y1="-96.5046" x2="46.2961" y2="118.675" gradientUnits="userSpaceOnUse">
<stop stop-color="#0034C4"/>
<stop offset="1" stop-color="#8550F4"/>
</linearGradient>
</defs>
</svg>
