<svg width="94" height="93" viewBox="0 0 94 93" fill="none" xmlns="http://www.w3.org/2000/svg">
<path d="M75.6029 92.5922H18.7352C8.89272 92.5922 0.872925 84.5724 0.872925 74.7299V17.8623C0.872925 8.0198 8.89272 0 18.7352 0H75.6029C85.4453 0 93.4651 8.0198 93.4651 17.8623V74.7299C93.4651 84.5724 85.4453 92.5922 75.6029 92.5922Z" fill="#080C3D"/>
<path d="M20.7037 46.1502H27.2654L20.2663 29.6732H20.5579C38.2015 27.486 56.0637 27.486 73.7073 29.6732H73.9989L66.9998 46.1502H73.5615L80.1231 30.5481L79.7586 30.4023L80.1231 30.4752C80.1231 26.2466 77.4256 22.3825 73.2698 20.8514C56.3554 14.5085 37.8369 14.5085 20.8495 20.8514C16.6938 22.3825 13.9962 26.2466 13.9962 30.4752L14.3608 30.4023L13.9962 30.5481L20.7037 46.1502Z" fill="white"/>
<path d="M39.5138 46.1503H42.2842C42.8675 44.036 44.836 42.432 47.169 42.432C49.5021 42.432 51.4706 44.036 52.0538 46.1503H64.2293C63.5732 37.3285 56.2095 30.4023 47.2419 30.4023C38.2743 30.4023 30.9107 37.3285 30.2545 46.1503H32.9521C33.6083 38.8596 39.7325 33.1728 47.169 33.1728V35.36C40.9719 35.36 35.7955 40.099 35.1393 46.1503H37.3266C37.9827 41.2655 42.1384 37.5473 47.169 37.5473V39.7345C43.3049 39.7345 40.1699 42.5049 39.5138 46.1503Z" fill="white"/>
<path d="M47.242 49.431H14.215H14.1421H14.0692V50.0143C14.0692 58.5444 15.8918 67.0017 19.4643 74.7298C19.9746 75.8235 21.0682 76.4796 22.2348 76.4796H47.0961H71.9575C73.124 76.4796 74.2176 75.7505 74.728 74.7298C78.3004 67.0017 80.1231 58.5444 80.1231 50.0143V49.431H47.242ZM50.0853 66.8559H44.2528L45.1276 62.1169C44.1798 61.4607 43.5966 60.44 43.5966 59.2006C43.5966 57.2321 45.2005 55.6281 47.169 55.6281C49.1375 55.6281 50.7415 57.2321 50.7415 59.2006C50.7415 60.44 50.1582 61.4607 49.2104 62.1169L50.0853 66.8559Z" fill="white"/>
</svg>
