<svg width="94" height="93" viewBox="0 0 94 93" fill="none" xmlns="http://www.w3.org/2000/svg">
<path d="M75.6379 92.5922H18.7702C8.92773 92.5922 0.907928 84.5724 0.907928 74.7299V17.8623C0.907928 8.0198 8.92773 0 18.7702 0H75.6379C85.4803 0 93.5001 8.0198 93.5001 17.8623V74.7299C93.5001 84.5724 85.4803 92.5922 75.6379 92.5922Z" fill="white"/>
<path d="M20.7387 46.1502H27.3004L20.3013 29.6732H20.5929C38.2365 27.486 56.0987 27.486 73.7423 29.6732H74.0339L67.0348 46.1502H73.5965L80.1581 30.5481L79.7936 30.4023L80.1581 30.4752C80.1581 26.2466 77.4606 22.3825 73.3049 20.8514C56.3904 14.5085 37.8719 14.5085 20.8845 20.8514C16.7288 22.3825 14.0313 26.2466 14.0313 30.4752L14.3958 30.4023L14.0313 30.5481L20.7387 46.1502Z" fill="url(#paint0_linear_16_4685)"/>
<path d="M39.5488 46.1503H42.3193C42.9025 44.036 44.871 42.432 47.204 42.432C49.5371 42.432 51.5056 44.036 52.0888 46.1503H64.2643C63.6082 37.3285 56.2445 30.4023 47.277 30.4023C38.3094 30.4023 30.9457 37.3285 30.2896 46.1503H32.9871C33.6433 38.8596 39.7675 33.1728 47.204 33.1728V35.36C41.0069 35.36 35.8305 40.099 35.1744 46.1503H37.3616C38.0177 41.2655 42.1734 37.5473 47.204 37.5473V39.7345C43.34 39.7345 40.205 42.5049 39.5488 46.1503Z" fill="url(#paint1_linear_16_4685)"/>
<path d="M47.277 49.431H14.25H14.1771H14.1042V50.0143C14.1042 58.5444 15.9269 67.0017 19.4993 74.7298C20.0097 75.8235 21.1033 76.4796 22.2698 76.4796H47.1312H71.9925C73.1591 76.4796 74.2527 75.7505 74.763 74.7298C78.3355 67.0017 80.1581 58.5444 80.1581 50.0143V49.431H47.277ZM50.1204 66.8559H44.2878L45.1627 62.1169C44.2149 61.4607 43.6316 60.44 43.6316 59.2006C43.6316 57.2321 45.2356 55.6281 47.2041 55.6281C49.1726 55.6281 50.7765 57.2321 50.7765 59.2006C50.7765 60.44 50.1933 61.4607 49.2455 62.1169L50.1204 66.8559Z" fill="url(#paint2_linear_16_4685)"/>
<defs>
<linearGradient id="paint0_linear_16_4685" x1="62.8636" y1="-4.57235" x2="62.8636" y2="59.5983" gradientUnits="userSpaceOnUse">
<stop stop-color="#0034C4"/>
<stop offset="1" stop-color="#8650F4"/>
</linearGradient>
<linearGradient id="paint1_linear_16_4685" x1="55.3787" y1="19.574" x2="55.3787" y2="53.1965" gradientUnits="userSpaceOnUse">
<stop stop-color="#0034C4"/>
<stop offset="1" stop-color="#8650F4"/>
</linearGradient>
<linearGradient id="paint2_linear_16_4685" x1="62.8826" y1="30.8324" x2="62.8826" y2="88.582" gradientUnits="userSpaceOnUse">
<stop stop-color="#0034C4"/>
<stop offset="1" stop-color="#8650F4"/>
</linearGradient>
</defs>
</svg>
