<svg width="15" height="15" viewBox="0 0 15 15" fill="none" xmlns="http://www.w3.org/2000/svg">
<path d="M9.89882 2.02811C9.89882 1.55034 9.89882 1.0967 9.89882 0.647887C9.89882 0.589975 9.89426 0.527238 9.90339 0.469326C9.93535 0.194247 10.2184 0.0494684 10.4467 0.184595C10.4923 0.213551 10.5289 0.247332 10.5699 0.281114C11.4145 0.995355 12.2591 1.7096 13.1037 2.42384C13.1266 2.44314 13.1494 2.46244 13.1677 2.48175C13.3777 2.67961 13.3777 2.92574 13.1631 3.11877C12.9439 3.31181 12.7202 3.4952 12.4965 3.68341C11.8528 4.22874 11.2091 4.77408 10.5608 5.31941C10.5334 5.34354 10.506 5.36284 10.4786 5.38697C10.3554 5.47866 10.2275 5.49797 10.0951 5.42558C9.96274 5.35319 9.89426 5.23254 9.89426 5.07328C9.89426 4.64377 9.89426 4.21909 9.89426 3.78958C9.89426 3.72202 9.89426 3.65928 9.89426 3.56759C9.83034 3.56759 9.77556 3.56759 9.72077 3.56759C8.09092 3.56759 6.46564 3.56276 4.83578 3.56759C3.42964 3.57241 2.27459 4.53278 1.95501 5.95643C1.81349 6.59829 1.86371 7.22083 2.10111 7.8289C2.16046 7.98816 2.21068 8.14259 2.18785 8.31633C2.13763 8.67827 1.90023 8.92922 1.56239 8.98231C1.24281 9.03057 0.941493 8.85683 0.799965 8.53349C0.635611 8.16189 0.521475 7.76617 0.471255 7.36079C0.288639 5.94678 0.612782 4.68238 1.50304 3.6062C2.33394 2.6024 3.39768 2.05224 4.66686 2.03776C6.33324 2.01363 8.00418 2.02811 9.67055 2.02811C9.7436 2.02811 9.81208 2.02811 9.89882 2.02811ZM5.52516 11.0478C5.52516 10.6328 5.52516 10.2177 5.52516 9.80272C5.52516 9.62898 5.46581 9.49386 5.31972 9.41664C5.16906 9.33943 5.0321 9.37321 4.90883 9.48421C4.88601 9.50351 4.86318 9.52281 4.84035 9.54212C4.33359 9.97163 3.82683 10.4011 3.32007 10.8258C2.9731 11.1202 2.62613 11.4146 2.27916 11.7041C2.15132 11.8103 2.08284 11.9358 2.10567 12.1095C2.12393 12.2398 2.20611 12.3219 2.29742 12.3991C2.79961 12.8238 3.30181 13.2484 3.804 13.6731C4.16467 13.9772 4.52534 14.2812 4.88601 14.5852C4.98188 14.6673 5.08232 14.73 5.21471 14.7059C5.40646 14.6721 5.52516 14.5177 5.52516 14.2957C5.52973 13.8613 5.52516 13.427 5.52516 12.9975C5.52516 12.9396 5.52973 12.8817 5.53429 12.8141C5.61647 12.8141 5.68495 12.8141 5.75343 12.8141C7.34676 12.8141 8.94009 12.8093 10.538 12.8141C11.0721 12.8141 11.5926 12.7369 12.0948 12.5487C14.1492 11.7717 15.3545 9.51799 14.9071 7.25944C14.8432 6.93128 14.7336 6.61276 14.6149 6.3039C14.4871 5.97574 14.172 5.80683 13.8525 5.85991C13.5146 5.913 13.2818 6.16878 13.2316 6.53072C13.2087 6.70446 13.2635 6.86371 13.3229 7.01814C13.6059 7.75651 13.6242 8.50454 13.364 9.25256C12.9394 10.4832 11.8574 11.2746 10.5791 11.2746C8.94922 11.2795 7.32393 11.2746 5.69408 11.2746C5.64386 11.2746 5.59364 11.2746 5.52516 11.2746C5.52516 11.1781 5.52516 11.1154 5.52516 11.0478Z" fill="#878694"/>
</svg>
