<svg width="13" height="13" viewBox="0 0 13 13" fill="none" xmlns="http://www.w3.org/2000/svg">
<path d="M0.647064 6.7323C0.647064 4.92033 0.647064 3.10406 0.647064 1.2921C0.647064 0.840184 0.9794 0.517387 1.41644 0.560427C1.57123 0.577643 1.73512 0.646506 1.86715 0.728281C4.26179 2.23036 6.65642 3.73674 9.04651 5.24743C9.51087 5.5401 9.97068 5.82847 10.435 6.12113C10.9586 6.45254 10.9586 7.01636 10.4305 7.34776C7.56693 9.15542 4.69883 10.9588 1.83528 12.7621C1.37092 13.0548 0.824613 12.8956 0.678932 12.4264C0.647064 12.3274 0.647064 12.2155 0.647064 12.1079C0.647064 10.3175 0.647064 8.52274 0.647064 6.7323ZM2.10388 10.9459C4.34373 9.53417 6.55627 8.13969 8.78702 6.7366C6.55172 5.3249 4.33918 3.93042 2.10388 2.52303C2.10388 5.34212 2.10388 8.12678 2.10388 10.9459ZM12.9981 2.77266C12.9981 2.7081 12.9981 2.64354 12.9936 2.57898C12.9754 2.2691 12.7523 2.01086 12.4427 1.942C12.1286 1.87313 11.7871 2.00225 11.646 2.2777C11.5823 2.40682 11.5504 2.56607 11.5504 2.7124C11.5459 5.39807 11.5459 8.07943 11.5459 10.7651C11.5459 10.8254 11.5459 10.8813 11.5504 10.9416C11.5823 11.2514 11.8554 11.514 12.1832 11.5398C12.6521 11.5785 12.989 11.2773 12.9936 10.8124C12.9936 9.461 12.9936 8.10526 12.9936 6.75382C12.9981 5.42389 13.0027 4.09828 12.9981 2.77266Z" fill="white"/>
</svg>
