<svg width="20" height="20" viewBox="0 0 20 20" fill="none" xmlns="http://www.w3.org/2000/svg">
<path opacity="0.9" d="M13.744 10.0401L18.4519 5.33224C19.4843 4.29986 19.4843 2.62604 18.4519 1.59365C17.4195 0.561275 15.7457 0.561275 14.7133 1.59366L10.0055 6.3015L5.30009 1.59613C4.26776 0.563793 2.59281 0.56769 1.56529 1.60482C0.546412 2.63322 0.548079 4.29102 1.56903 5.31737L6.26688 10.0401L1.57145 14.7603C0.550549 15.7867 0.552736 17.4456 1.57635 18.4692C2.59996 19.4928 4.25888 19.495 5.28519 18.4741L10.0055 13.7787L14.7282 18.4765C15.7545 19.4975 17.4123 19.4991 18.4407 18.4803C19.4779 17.4527 19.4817 15.7778 18.4494 14.7454L13.744 10.0401Z" fill="white"/>
</svg>
