<svg width="24" height="20" viewBox="0 0 24 20" fill="none" xmlns="http://www.w3.org/2000/svg">
<path d="M11.9628 19.9963C8.39 19.9963 4.81723 19.9963 1.25281 19.9963C1.15264 19.9963 1.04412 19.9963 0.943947 19.9963C0.443091 19.9629 0.050753 19.562 0.00901507 19.0693C0.000667477 19.0109 0.00901507 18.944 0.00901507 18.8856C0.00901507 14.2591 -0.0160272 9.63255 0.0173632 5.01438C0.0340584 2.8765 1.08585 1.33989 3.01415 0.421267C3.62352 0.128978 4.27464 0.00371161 4.95079 0.00371161C9.65883 0.00371161 14.3669 -0.00463951 19.0666 0.00371161C21.5375 0.0120627 23.6327 1.88271 23.9499 4.32959C23.9833 4.58012 24 4.83066 24 5.07284C24 9.66596 24 14.2591 24 18.8522C24 18.9942 23.9916 19.1445 23.9499 19.2864C23.833 19.6957 23.4825 19.9712 23.0567 19.9963C22.9566 20.0046 22.848 19.9963 22.7479 19.9963C19.15 19.9963 15.5606 19.9963 11.9628 19.9963ZM12.9979 11.8122C12.9979 12.2297 13.0062 12.6306 12.9979 13.0231C12.9812 13.4741 12.689 13.8332 12.2549 13.9584C11.8626 14.067 11.4285 13.9083 11.1864 13.5576C11.0529 13.3739 11.0028 13.1651 11.0028 12.9396C11.0028 12.5638 11.0028 12.188 11.0028 11.8122C10.5771 11.6368 10.2098 11.4113 9.89257 11.1023C9.56701 10.785 9.34997 10.4009 9.17467 10C7.87245 9.93319 2.25452 9.9666 2.02079 10.0334C2.02079 12.6807 2.02079 15.3197 2.02079 17.967C8.68217 17.967 15.3352 17.967 21.9715 17.967C21.9715 15.2946 21.9715 12.6473 21.9715 9.99165C19.5758 9.99165 17.2051 9.99165 14.8176 9.99165C14.4754 10.8602 13.8827 11.4614 12.9979 11.8122ZM9.16633 7.97903C9.70892 6.73471 10.6272 5.99981 12.0045 5.99981C13.3819 5.99981 14.3001 6.74306 14.826 7.97068C17.2218 7.97068 19.6008 7.97068 21.9966 7.97068C21.9966 7.88717 21.9966 7.82871 21.9966 7.77025C21.9966 6.85163 22.0049 5.94136 21.9966 5.02273C21.9799 3.3024 20.6777 1.99128 18.9581 1.99128C14.3168 1.98293 9.67553 1.98293 5.03427 1.99128C3.32301 1.99128 2.02079 3.31075 2.00409 5.02273C1.99574 5.92465 2.00409 6.83493 2.00409 7.73685C2.00409 7.81201 2.02079 7.89552 2.02913 7.97903C4.41655 7.97903 6.78726 7.97903 9.16633 7.97903ZM12.9979 8.98116C12.9895 8.43834 12.5471 7.98738 11.9962 7.98738C11.4369 7.98738 10.9861 8.44669 10.9945 9.00622C11.0028 9.54069 11.4703 9.99165 12.0129 9.9833C12.5638 9.9833 12.9979 9.52399 12.9979 8.98116Z" fill="#878694"/>
</svg>
