<svg width="20" height="22" viewBox="0 0 20 22" fill="none" xmlns="http://www.w3.org/2000/svg">
<path d="M16.645 0C16.7618 0.0257813 16.8742 0.0515625 16.9911 0.0773437C18.7573 0.429688 20.0247 1.9293 19.9978 3.63516C19.9708 5.37109 18.6809 6.84062 16.9012 7.14141C15.6562 7.35195 14.5686 7.02109 13.6383 6.20039C13.5844 6.15313 13.5304 6.10156 13.4765 6.0543C13.472 6.05 13.463 6.05 13.436 6.03711C11.3911 7.24883 9.33721 8.46914 7.27431 9.69375C7.61138 10.566 7.61138 11.434 7.27431 12.3062C9.33721 13.5309 11.3866 14.7469 13.4495 15.9715C13.499 15.9285 13.5484 15.8855 13.5933 15.8469C14.6989 14.8586 15.9888 14.5363 17.4225 14.9961C18.8562 15.4559 19.7101 16.4527 19.9528 17.875C20.2854 19.8129 18.8203 21.682 16.7933 21.9613C16.7439 21.9699 16.6944 21.9871 16.645 22C16.3753 22 16.1057 22 15.836 22C15.6562 21.9613 15.472 21.927 15.2922 21.884C13.1933 21.3598 12.0023 19.2844 12.6495 17.3078C12.672 17.2391 12.69 17.1746 12.7169 17.0887C10.663 15.8684 8.61362 14.6523 6.55072 13.4277C5.62039 14.3344 4.5013 14.7426 3.17997 14.5578C2.23166 14.4246 1.44965 13.982 0.847408 13.2687C-0.397523 11.7992 -0.253704 9.71953 1.16651 8.40039C2.53728 7.12852 4.92377 6.95664 6.55521 8.57227C8.60463 7.35625 10.6585 6.13594 12.699 4.92852C12.6316 4.62344 12.5462 4.33984 12.5057 4.05195C12.245 2.21719 13.5484 0.464063 15.4405 0.0859375C15.5708 0.0601562 15.7012 0.0300781 15.8315 0.00429688C16.1102 0 16.3798 0 16.645 0ZM16.2315 20.6809C17.5439 20.6852 18.6135 19.6668 18.6225 18.4121C18.6315 17.1445 17.5618 16.1133 16.2405 16.1133C14.9282 16.109 13.863 17.123 13.854 18.382C13.8405 19.6496 14.9057 20.6809 16.2315 20.6809ZM13.854 3.59648C13.8495 4.85547 14.9147 5.88242 16.2225 5.88672C17.5439 5.89102 18.6225 4.86836 18.6225 3.60508C18.6225 2.3375 17.5529 1.31484 16.227 1.31914C14.9102 1.32344 13.854 2.3332 13.854 3.59648ZM1.38223 10.9914C1.37774 12.2504 2.43391 13.273 3.74625 13.2816C5.07208 13.2902 6.14623 12.2719 6.15072 11.0043C6.15522 9.74531 5.09905 8.72266 3.78221 8.71406C2.45638 8.70977 1.38673 9.71953 1.38223 10.9914Z" fill="#777688"/>
</svg>
