<svg width="28" height="29" viewBox="0 0 28 29" fill="none" xmlns="http://www.w3.org/2000/svg">
<path d="M11.2886 29C11.1982 28.9697 11.1079 28.947 11.025 28.9168C10.076 28.6217 9.54127 27.9635 9.38311 26.9951C9.30779 26.5336 9.23247 26.0646 9.14962 25.6031C8.96133 24.5136 7.9295 23.8932 6.89013 24.2564C6.42317 24.4228 5.95621 24.612 5.48925 24.7784C4.35197 25.1945 3.25988 24.8087 2.65735 23.7571C1.88159 22.418 1.11336 21.0788 0.345138 19.7397C-0.257394 18.6806 -0.0540391 17.5533 0.879884 16.7665C1.24893 16.4563 1.62552 16.1537 1.98704 15.8435C2.87577 15.0869 2.87577 13.8991 1.9795 13.1501C1.60292 12.8324 1.21881 12.5298 0.849758 12.212C-0.0465075 11.4403 -0.257394 10.313 0.330074 9.27656C1.10583 7.92989 1.88159 6.58322 2.65735 5.24411C3.26741 4.20006 4.3595 3.81422 5.48925 4.23032C5.92608 4.3892 6.36292 4.54051 6.78469 4.71452C7.88431 5.17602 9.02912 4.44973 9.16469 3.34515C9.22494 2.83069 9.32285 2.3238 9.4283 1.80934C9.63918 0.757727 10.5279 0.0163015 11.5899 0.00873597C13.1941 0.0011704 14.8059 -0.00639517 16.4101 0.00873597C17.5399 0.0163015 18.4211 0.825818 18.6169 2.00605C18.6922 2.46755 18.7675 2.93661 18.8504 3.39811C19.0387 4.49512 20.063 5.10793 21.1099 4.75235C21.5768 4.59347 22.0438 4.40433 22.5108 4.23032C23.648 3.81422 24.7401 4.1925 25.3502 5.24411C26.1335 6.59078 26.9092 7.93745 27.6699 9.28412C28.2574 10.313 28.0465 11.4479 27.1502 12.2196C26.7812 12.5373 26.3971 12.8399 26.0205 13.1577C25.1318 13.9143 25.1318 15.0945 26.013 15.851C26.382 16.1688 26.7661 16.4714 27.1427 16.7892C28.0465 17.5609 28.2499 18.6881 27.6699 19.717C26.9017 21.0788 26.1184 22.4331 25.3351 23.7798C24.7401 24.7935 23.648 25.187 22.5409 24.786C22.089 24.6195 21.6371 24.4607 21.2002 24.2791C20.1232 23.8327 18.9784 24.5514 18.8428 25.6485C18.7826 26.1553 18.6922 26.6547 18.5868 27.154C18.3834 28.1148 17.7959 28.7125 16.847 28.9395C16.8018 28.947 16.7641 28.9697 16.7189 28.9924C14.8963 29 13.0962 29 11.2886 29ZM25.7268 18.5595C25.3201 18.2191 24.9209 17.9013 24.5368 17.576C22.8497 16.1537 22.5936 13.7175 23.9644 12.0304C24.228 11.7051 24.5669 11.4403 24.8832 11.1604C25.1544 10.9183 25.4406 10.6913 25.7268 10.4568C24.9284 9.07229 24.1451 7.70292 23.3543 6.33355C22.8873 6.50756 22.4505 6.674 22.0212 6.83288C20.914 7.26412 19.8144 7.24899 18.7525 6.70427C17.5097 6.06876 16.8093 5.03227 16.5909 3.64777C16.5231 3.19384 16.4403 2.73991 16.3649 2.28597C14.7758 2.28597 13.2092 2.28597 11.6275 2.28597C11.6049 2.39189 11.5899 2.49781 11.5673 2.59616C11.4694 3.12575 11.4091 3.66291 11.2811 4.17736C10.8141 6.04606 8.9764 7.30951 7.07089 7.10524C6.56627 7.05228 6.10684 6.88584 5.63988 6.70427C5.30849 6.57565 4.9771 6.4546 4.63064 6.33355C3.83229 7.71805 3.05653 9.07985 2.26571 10.4492C2.33349 10.5097 2.38621 10.5551 2.43893 10.6081C2.77786 10.888 3.12431 11.168 3.46324 11.4554C4.5252 12.3784 5.00722 13.5435 4.87165 14.9507C4.76621 16.025 4.26912 16.9027 3.44817 17.5911C3.05653 17.9164 2.66488 18.2418 2.26571 18.5671C3.05653 19.944 3.84735 21.3134 4.63817 22.6903C5.15786 22.4936 5.64741 22.3045 6.1445 22.1229C8.28349 21.3512 10.6108 22.5314 11.2585 24.7255C11.3564 25.0583 11.4016 25.4064 11.4618 25.7468C11.5221 26.0797 11.5748 26.405 11.6275 26.7228C13.2318 26.7228 14.7908 26.7228 16.3725 26.7228C16.4478 26.2613 16.5231 25.8149 16.5984 25.3685C16.8093 23.9916 17.5097 22.9475 18.7525 22.312C19.8144 21.7673 20.914 21.7522 22.0212 22.1834C22.458 22.3499 22.8949 22.5163 23.3543 22.6903C24.1451 21.3058 24.9284 19.944 25.7268 18.5595ZM14.1506 20.0878C11.1154 20.1558 8.53203 17.7878 8.44165 14.6632C8.35127 11.5916 10.7388 9.01176 13.8343 8.92098C16.9072 8.82263 19.4755 11.2436 19.5583 14.3606C19.6412 17.4095 17.2612 19.9818 14.1506 20.0878ZM14.0301 11.1755C12.2376 11.1453 10.7237 12.6281 10.6861 14.4514C10.6484 16.2596 12.1322 17.7954 13.9623 17.8257C15.7549 17.8559 17.2687 16.3806 17.3064 14.5498C17.3516 12.7416 15.8603 11.2058 14.0301 11.1755Z" fill="white"/>
</svg>
