<svg width="17" height="14" viewBox="0 0 17 14" fill="none" xmlns="http://www.w3.org/2000/svg">
<path d="M0 4.24359C0.0725035 3.90375 0.120839 3.55433 0.227178 3.22405C0.903877 1.13232 2.99681 -0.203137 5.19608 0.031405C6.3223 0.151069 7.27935 0.610581 8.08172 1.39558C8.21223 1.52482 8.3379 1.66363 8.49257 1.82158C8.65208 1.65405 8.78742 1.50567 8.93243 1.36207C11.2622 -0.897191 15.1194 -0.260576 16.5163 2.64009C17.3235 4.31539 17.0867 5.93804 16.0571 7.46017C15.5834 8.15901 14.9406 8.71425 14.3219 9.28386C12.6639 10.8108 10.9239 12.2515 9.17411 13.6779C8.96626 13.8455 8.76809 14.0369 8.47324 13.9938C8.31373 13.9699 8.13489 13.9316 8.01888 13.8359C5.85828 12.0792 3.69768 10.3178 1.71108 8.36962C1.00538 7.68035 0.454355 6.89536 0.193343 5.94283C0.111172 5.64606 0.0628363 5.33493 0 5.03338C0 4.77012 0 4.50685 0 4.24359ZM8.47807 12.309C8.53608 12.2659 8.57475 12.2372 8.61341 12.2085C9.78797 11.2176 10.977 10.246 12.1274 9.23599C12.9395 8.52758 13.7322 7.79045 14.4814 7.01981C15.2982 6.17737 15.6463 5.14825 15.3997 3.98512C14.9019 1.65884 12.0694 0.696739 10.2182 2.21408C9.91848 2.46299 9.6333 2.73582 9.37228 3.0278C8.72459 3.74579 8.2799 3.78887 7.59353 3.01823C7.40986 2.81241 7.20685 2.62573 7.00867 2.43427C6.2643 1.71628 5.37492 1.40037 4.33571 1.51046C2.46028 1.70192 1.16972 3.48731 1.57091 5.311C1.74975 6.11036 2.16544 6.76612 2.7648 7.31657C3.86685 8.32654 4.97374 9.33172 6.09996 10.3178C6.87816 10.9975 7.68054 11.6389 8.47807 12.309Z" fill="#777688"/>
</svg>
