<svg width="13" height="13" viewBox="0 0 13 13" fill="none" xmlns="http://www.w3.org/2000/svg">
<path d="M12.3529 6.7323C12.3529 4.92033 12.3529 3.10406 12.3529 1.2921C12.3529 0.840184 12.0206 0.517387 11.5836 0.560427C11.4288 0.577643 11.2649 0.646506 11.1329 0.728281C8.73821 2.23036 6.34358 3.73674 3.95349 5.24743C3.48913 5.5401 3.02932 5.82847 2.56496 6.12113C2.04142 6.45254 2.04142 7.01636 2.56952 7.34776C5.43307 9.15542 8.30117 10.9588 11.1647 12.7621C11.6291 13.0548 12.1754 12.8956 12.3211 12.4264C12.3529 12.3274 12.3529 12.2155 12.3529 12.1079C12.3529 10.3175 12.3529 8.52274 12.3529 6.7323ZM10.8961 10.9459C8.65627 9.53417 6.44373 8.13969 4.21298 6.7366C6.44828 5.3249 8.66082 3.93042 10.8961 2.52303C10.8961 5.34212 10.8961 8.12678 10.8961 10.9459ZM0.00188065 2.77266C0.00188065 2.7081 0.00187969 2.64354 0.00643158 2.57898C0.024642 2.2691 0.247717 2.01086 0.55729 1.942C0.871415 1.87313 1.21286 2.00225 1.35399 2.2777C1.41772 2.40682 1.44959 2.56607 1.44959 2.7124C1.45414 5.39807 1.45414 8.07943 1.45414 10.7651C1.45414 10.8254 1.45414 10.8813 1.44959 10.9416C1.41772 11.2514 1.14457 11.514 0.816786 11.5398C0.347874 11.5785 0.0109844 11.2773 0.00643158 10.8124C0.00643158 9.461 0.00643158 8.10526 0.00643158 6.75382C0.00187969 5.42389 -0.0026722 4.09828 0.00188065 2.77266Z" fill="white"/>
</svg>
