<svg width="18" height="15" viewBox="0 0 18 15" fill="none" xmlns="http://www.w3.org/2000/svg">
<path d="M0 11.6147C0.0180669 11.5737 0.0406506 11.5372 0.0587175 11.4961C0.185186 11.227 0.392955 11.0719 0.69106 11.0628C0.962063 11.0537 1.23307 11.0582 1.50407 11.0582C2.1861 11.0582 2.86812 11.0582 3.55015 11.0582C4.44446 11.0537 5.24844 10.7845 5.93047 10.1915C6.73444 9.49814 7.16805 8.61318 7.20418 7.5412C7.22677 6.85239 7.30355 6.17727 7.57004 5.5432C8.29723 3.80522 9.57998 2.74692 11.4183 2.39111C11.7209 2.33181 12.0326 2.32269 12.3442 2.31813C13.1121 2.309 13.8754 2.31356 14.6432 2.31356C14.6974 2.31356 14.7516 2.31356 14.8329 2.31356C14.7878 2.25882 14.7607 2.22233 14.7336 2.19496C14.4626 1.92126 14.187 1.65213 13.9206 1.37387C13.627 1.06824 13.645 0.59839 13.9522 0.320131C14.2141 0.082926 14.6071 0.0692411 14.8826 0.292761C14.9188 0.320131 14.9504 0.352062 14.982 0.383994C15.6776 1.08192 16.3686 1.78442 17.0642 2.48234C17.2765 2.69674 17.3668 2.94763 17.272 3.24414C17.2358 3.35818 17.1681 3.47678 17.0823 3.55889C16.3731 4.28419 15.6595 5.00493 14.9459 5.7211C14.7291 5.9355 14.4671 5.99936 14.1825 5.89901C13.9025 5.79865 13.7444 5.58882 13.7083 5.29231C13.6812 5.05967 13.767 4.85896 13.9296 4.69018C14.187 4.43016 14.449 4.16559 14.7065 3.90557C14.7426 3.86908 14.7787 3.82346 14.8375 3.7596C14.7607 3.7596 14.72 3.7596 14.6749 3.7596C13.8844 3.7596 13.0985 3.7596 12.3081 3.7596C11.4906 3.7596 10.7408 3.99224 10.0904 4.50315C9.16444 5.22389 8.67664 6.18639 8.65857 7.36785C8.63599 8.64055 8.25206 9.77183 7.4255 10.7343C6.57636 11.7242 5.50138 12.3035 4.20959 12.4632C4.01537 12.486 3.81664 12.4997 3.6179 12.4997C2.66487 12.5043 1.71184 12.5043 0.763327 12.4997C0.397472 12.4997 0.176152 12.34 0.0361338 11.9979C0.0271004 11.9797 0.0135502 11.9614 0 11.9432C0 11.8428 0 11.7288 0 11.6147ZM0 3.21221C0.0542008 3.308 0.0993681 3.41292 0.167119 3.49959C0.320688 3.69574 0.532974 3.76872 0.776877 3.76872C1.68926 3.76416 2.60164 3.76872 3.51402 3.76872C3.8347 3.76872 4.15539 3.79609 4.46705 3.8782C4.86903 3.97856 5.24392 4.14278 5.58719 4.37542C5.78141 4.50771 5.98918 4.55333 6.21502 4.48946C6.49506 4.40735 6.67121 4.22033 6.72541 3.93294C6.78413 3.61819 6.67573 3.35818 6.41376 3.18027C5.61429 2.63744 4.73353 2.34093 3.76695 2.32269C3.2656 2.31356 2.76424 2.31813 2.26288 2.31813C1.75249 2.31813 1.23758 2.31813 0.727193 2.31813C0.397472 2.31813 0.176152 2.48691 0.0451673 2.78797C0.0316171 2.81534 0.0135502 2.84728 0 2.87464C0 2.98412 0 3.09817 0 3.21221ZM14.702 12.6593C14.4445 12.9194 14.187 13.1839 13.9251 13.4439C13.7851 13.5854 13.6992 13.7541 13.6947 13.9594C13.6857 14.2468 13.8573 14.5205 14.1193 14.6437C14.3948 14.7714 14.702 14.7166 14.9278 14.4886C15.646 13.7678 16.3641 13.0425 17.0778 12.3172C17.1636 12.2306 17.2313 12.1165 17.272 12.0025C17.3668 11.7105 17.2855 11.4551 17.0687 11.2407C16.3731 10.5382 15.6731 9.83113 14.9775 9.12864C14.9504 9.10127 14.9233 9.0739 14.8917 9.04653C14.6071 8.80933 14.2006 8.82758 13.9386 9.08303C13.6496 9.36585 13.6405 9.82201 13.9296 10.1231C14.1961 10.4013 14.4716 10.6705 14.7426 10.9442C14.7697 10.9715 14.7923 11.008 14.8284 11.0537C14.7833 11.0582 14.7607 11.0582 14.7381 11.0582C13.9206 11.0582 13.103 11.0628 12.29 11.0537C12.0416 11.0491 11.7932 11.0217 11.5538 10.9761C11.075 10.8894 10.6459 10.6842 10.2394 10.4241C9.89615 10.2006 9.46255 10.301 9.24574 10.6385C9.03346 10.967 9.11476 11.4049 9.449 11.633C10.2123 12.1576 11.0524 12.4586 11.9738 12.4951C12.6378 12.5225 13.3018 12.5043 13.9657 12.5088C14.2458 12.5088 14.5303 12.5088 14.851 12.5088C14.7787 12.5772 14.7426 12.6183 14.702 12.6593Z" fill="#878694"/>
</svg>
