<svg width="21" height="20" viewBox="0 0 21 20" fill="none" xmlns="http://www.w3.org/2000/svg">
<path d="M15.3327 15.959C13.0961 17.5878 10.6364 18.2306 7.9144 17.8187C5.54657 17.4568 3.59852 16.3584 2.09648 14.5861C-0.920703 11.0227 -0.651778 5.98022 2.71304 2.68516C5.99259 -0.52253 11.3251 -0.90945 15.0901 1.81147C17.189 3.32795 18.4418 5.34992 18.7763 7.83993C19.1108 10.3299 18.4155 12.5703 16.7954 14.5673C16.8676 14.6422 16.9397 14.7109 17.0053 14.7733C18.2056 15.9153 19.4125 17.0636 20.6194 18.2056C20.8489 18.4241 21.0064 18.6674 20.9998 18.9857C20.9932 19.3851 20.803 19.6909 20.4357 19.8781C20.0619 20.0653 19.6945 20.0341 19.3469 19.8032C19.2551 19.7408 19.1698 19.6597 19.0911 19.5848C17.8908 18.449 16.697 17.307 15.4967 16.1649C15.4442 16.1025 15.3983 16.0339 15.3327 15.959ZM16.7692 8.96949C16.7429 5.00044 13.4044 1.99869 9.46235 1.99245C5.40227 1.97997 2.11616 5.07532 2.10304 8.93828C2.08337 12.8075 5.36292 15.9528 9.42956 15.9465C13.4962 15.9403 16.7364 12.8574 16.7692 8.96949Z" fill="#878694"/>
</svg>
