<svg width="19" height="20" viewBox="0 0 19 20" fill="none" xmlns="http://www.w3.org/2000/svg">
<path d="M0 13.6426C0 11.8681 0 10.0936 0 8.31905C0 7.6263 0.216715 7.02946 0.690455 6.54454C0.781171 6.45395 0.881963 6.36868 0.982759 6.29408C3.63873 4.27443 6.28965 2.24946 8.94562 0.229812C9.34377 -0.0739339 9.65119 -0.0792628 10.0544 0.229812C12.7053 2.24413 15.3512 4.26377 18.0021 6.28342C18.6724 6.78966 18.995 7.48242 18.995 8.3457C18.995 11.9001 18.9899 15.4598 19 19.0141C19 19.4937 18.6724 20.0053 18.0626 20C16.3491 19.9893 14.6355 19.9946 12.922 19.9946C12.6146 19.9946 12.3072 20 11.9947 19.9946C11.5966 19.984 11.2942 19.7442 11.1984 19.3605C11.1732 19.2592 11.1732 19.1527 11.1732 19.0461C11.1732 17.7565 11.1732 16.4669 11.1732 15.1773C11.1732 14.6018 11.0019 14.1009 10.5785 13.7279C10.0695 13.2696 9.47985 13.1523 8.84987 13.3868C8.22494 13.6213 7.85199 14.1009 7.73607 14.7936C7.71088 14.9375 7.70584 15.0867 7.70584 15.2306C7.70584 16.5202 7.7008 17.8098 7.70584 19.0994C7.70584 19.3445 7.63528 19.5577 7.47905 19.7335C7.32785 19.8987 7.14138 19.9786 6.92467 19.9946C6.86419 20 6.79868 20 6.7382 20C4.81804 20 2.89788 20 0.972681 20C0.902124 20 0.831569 20 0.766051 19.9946C0.337669 19.952 0.0403232 19.6269 0.00504471 19.174C4.92159e-06 19.11 0.00504471 19.0408 0.00504471 18.9768C4.92159e-06 17.1916 0 15.4171 0 13.6426ZM9.4748 1.87111C9.40424 1.9244 9.35385 1.9617 9.30345 1.999C7.49921 3.36852 5.69496 4.73804 3.89072 6.10757C3.22547 6.61381 2.56022 7.11472 1.89497 7.62097C1.68833 7.77551 1.56738 7.98333 1.56738 8.26043C1.56738 11.559 1.56738 14.8576 1.56738 18.1508C1.56738 18.1935 1.57745 18.2361 1.58249 18.2841C3.10955 18.2841 4.62653 18.2841 6.16366 18.2841C6.16366 18.2041 6.16366 18.1348 6.16366 18.0602C6.16366 17.1117 6.16366 16.1578 6.16366 15.2093C6.16366 14.9055 6.17878 14.5965 6.25438 14.2981C6.59709 12.9605 7.39841 12.0653 8.6634 11.7295C9.94854 11.3832 11.0674 11.7775 11.9594 12.8273C12.5188 13.4881 12.7759 14.2767 12.7759 15.1667C12.7708 16.1525 12.7759 17.133 12.7759 18.1189C12.7759 18.1881 12.7809 18.2574 12.7859 18.3267C14.3231 18.3267 15.8401 18.3267 17.3722 18.3267C17.3722 18.2414 17.3722 18.1615 17.3722 18.0816C17.3722 14.8629 17.3722 11.6443 17.3722 8.43096C17.3722 8.383 17.3722 8.34037 17.3722 8.29241C17.3772 8.06327 17.2814 7.88208 17.1252 7.73287C17.0748 7.68492 17.0143 7.64228 16.9589 7.59965C14.5751 5.77185 12.1862 3.94937 9.80239 2.12689C9.70159 2.0363 9.59576 1.95637 9.4748 1.87111Z" fill="white"/>
</svg>
